<svg id="logoLangEnglish" width="172.33mm" height="37.367mm" version="1.1" viewBox="0 0 172.32579 37.367058" xmlns="http://www.w3.org/2000/svg"><g transform="translate(402.01 -69.418)"><g transform="matrix(.36617 0 0 -.36617 -388.28 93.056)"><path d="m0 0c7.472-7.472 19.587-7.472 27.059 0l11.275-11.275c-13.699-13.699-35.91-13.699-49.609 0s-13.699 35.91 0 49.609 35.91 13.699 49.609 0l-11.275-11.275c-7.472 7.473-19.587 7.473-27.059 0-7.472-7.472-7.472-19.587 0-27.059m13.53 64.553c-28.18 0-51.024-22.844-51.024-51.023 0-10.804 3.367-20.816 9.096-29.065l-9.096-21.959 21.959 9.096c8.249-5.729 18.261-9.096 29.065-9.096 28.179 0 51.023 22.844 51.023 51.024 0 28.179-22.844 51.023-51.023 51.023" class="safill"  fill="#008fff"/></g><g transform="matrix(.35278 0 0 -.35278 -342.79 95.237)"><path d="m0 0c-1.98-2.101-4.32-3.78-7.02-5.041-2.7-1.259-5.85-1.889-9.45-1.889s-6.81 0.539-9.63 1.62c-2.821 1.08-5.19 2.61-7.11 4.59-1.921 1.979-3.391 4.349-4.41 7.11-1.021 2.759-1.53 5.819-1.53 9.18 0 3.06 0.554 5.954 1.665 8.685 1.109 2.729 2.655 5.115 4.635 7.154 1.98 2.04 4.365 3.66 7.155 4.861 2.79 1.2 5.864 1.8 9.225 1.8 3.42 0 6.539-0.616 9.36-1.845 2.82-1.23 5.22-2.896 7.2-4.995l-6.75-6.84c-1.201 1.38-2.61 2.46-4.23 3.24-1.62 0.779-3.481 1.17-5.58 1.17-2.041 0-3.811-0.375-5.31-1.125-1.5-0.751-2.745-1.725-3.735-2.925-0.99-1.201-1.725-2.61-2.205-4.23-0.481-1.62-0.72-3.271-0.72-4.95 0-1.62 0.239-3.211 0.72-4.77 0.48-1.561 1.215-2.97 2.205-4.23 0.99-1.261 2.235-2.281 3.735-3.061 1.499-0.78 3.269-1.169 5.31-1.169 2.099 0 4.019 0.405 5.76 1.215 1.739 0.81 3.209 1.904 4.41 3.285z" class="safill"  fill="#008fff"/></g><g transform="matrix(.35278 0 0 -.35278 -315.49 90.569)"><path d="m0 0c-1.08 0.059-2.13 0.12-3.15 0.18-0.841 0.059-1.725 0.104-2.655 0.135-0.931 0.03-1.725 0.044-2.385 0.044-3.42 0-5.821-0.675-7.2-2.025-1.381-1.35-2.07-2.895-2.07-4.634 0-1.8 0.644-3.211 1.935-4.23 1.289-1.021 3.195-1.53 5.715-1.53 1.26 0 2.475 0.21 3.645 0.63 1.17 0.419 2.205 0.989 3.105 1.71 0.9 0.72 1.634 1.559 2.205 2.52 0.569 0.959 0.855 1.98 0.855 3.059zm0-15.12c-1.14-1.381-2.88-2.61-5.22-3.69-2.34-1.081-4.95-1.62-7.83-1.62-1.741 0-3.465 0.27-5.175 0.81s-3.271 1.364-4.68 2.475c-1.41 1.109-2.551 2.534-3.42 4.275-0.871 1.74-1.305 3.779-1.305 6.12 0 2.399 0.45 4.545 1.35 6.434 0.9 1.891 2.16 3.48 3.78 4.771 1.62 1.29 3.569 2.264 5.85 2.925 2.279 0.659 4.8 0.99 7.56 0.99 0.84 0 1.769-0.016 2.79-0.045 1.02-0.031 2.01-0.076 2.97-0.135 1.08-0.061 2.19-0.121 3.33-0.181v0.991c0 2.1-0.841 3.749-2.52 4.95-1.68 1.2-3.87 1.8-6.57 1.8-3.001 0-5.4-0.391-7.2-1.17-1.8-0.78-3.39-1.621-4.77-2.521l-4.86 7.2c0.84 0.6 1.8 1.216 2.88 1.846 1.08 0.629 2.34 1.199 3.78 1.71 1.44 0.509 3.105 0.93 4.995 1.26 1.89 0.329 4.095 0.495 6.615 0.495 2.7 0 5.144-0.375 7.335-1.125 2.19-0.751 4.064-1.8 5.625-3.15 1.56-1.35 2.759-2.97 3.6-4.861 0.84-1.889 1.26-3.945 1.26-6.164v-28.35h-9.9z" class="safill"  fill="#008fff"/></g><g transform="matrix(.35278 0 0 -.35278 -307.7 85.268)"><path d="m0 0h-7.2v8.641h7.2v13.679h10.62v-13.679h11.34v-8.641h-11.34v-18.45c0-2.4 0.405-4.245 1.215-5.534 0.81-1.292 2.115-1.936 3.915-1.936 1.68 0 3.016 0.239 4.005 0.72 0.99 0.48 1.936 1.049 2.836 1.71l4.5-6.569c-2.102-1.742-4.172-2.986-6.211-3.736-2.041-0.75-4.32-1.125-6.839-1.125-2.581 0-4.771 0.375-6.571 1.125s-3.256 1.814-4.365 3.195c-1.111 1.38-1.905 3.045-2.385 4.995-0.481 1.949-0.72 4.096-0.72 6.435z" class="safill"  fill="#008fff"/></g><g transform="matrix(.35278 0 0 -.35278 -287.76 88.188)"><path d="m0 0c0 1.079-0.211 2.159-0.63 3.24-0.421 1.08-1.036 2.055-1.845 2.925-0.81 0.869-1.846 1.589-3.105 2.16-1.261 0.57-2.7 0.854-4.32 0.854-1.741 0-3.285-0.284-4.635-0.854-1.35-0.571-2.475-1.291-3.375-2.16-0.9-0.87-1.591-1.845-2.07-2.925-0.481-1.081-0.72-2.161-0.72-3.24zm10.35-19.441c-0.18-0.18-0.675-0.675-1.485-1.484-0.811-0.81-1.981-1.666-3.511-2.566-1.529-0.9-3.48-1.709-5.85-2.43-2.37-0.72-5.205-1.079-8.504-1.079-3.361 0-6.421 0.57-9.18 1.709-2.761 1.14-5.116 2.715-7.066 4.725-1.95 2.011-3.45 4.425-4.5 7.245s-1.575 5.941-1.575 9.361c0 3.119 0.525 6.014 1.575 8.685 1.05 2.668 2.521 4.995 4.411 6.975 1.889 1.979 4.139 3.539 6.75 4.679 2.61 1.139 5.503 1.711 8.685 1.711 3.839 0 7.095-0.706 9.765-2.115 2.669-1.411 4.814-3.255 6.435-5.535 1.62-2.281 2.79-4.861 3.509-7.74 0.72-2.88 1.081-5.821 1.081-8.821v-1.529h-31.5c0-1.561 0.344-2.971 1.035-4.23 0.689-1.261 1.589-2.341 2.7-3.241 1.109-0.9 2.37-1.59 3.779-2.07 1.41-0.48 2.805-0.719 4.186-0.719 2.039 0 3.825 0.194 5.355 0.585 1.53 0.389 2.834 0.839 3.914 1.35 1.081 0.509 1.965 1.049 2.656 1.62 0.689 0.569 1.214 1.034 1.575 1.395z" class="safill"  fill="#008fff"/></g><g transform="matrix(.35278 0 0 -.35278 -281.61 82.315)"><path d="m0 0h10.17l0.271-5.31c0.479 0.599 1.093 1.26 1.844 1.98 0.75 0.72 1.634 1.379 2.656 1.98 1.019 0.599 2.204 1.109 3.554 1.529s2.894 0.63 4.635 0.63c1.02 0 1.936-0.06 2.745-0.18 0.81-0.12 1.634-0.33 2.475-0.629l-2.159-9.991c-0.721 0.3-1.456 0.509-2.206 0.631-0.751 0.119-1.635 0.18-2.655 0.18-1.439 0-2.821-0.241-4.139-0.72-1.321-0.482-2.461-1.171-3.421-2.071s-1.725-1.979-2.295-3.239c-0.57-1.261-0.855-2.67-0.855-4.231v-22.769h-10.62z" class="safill"  fill="#008fff"/></g><g class="safill"  fill="#008fff"><path d="m-267.95 95.582c0-1.3296-1.0777-2.4074-2.4074-2.4074-1.3296 0-2.4074 1.0777-2.4074 2.4074s1.0777 2.4074 2.4074 2.4074c1.3296 0 2.4074-1.0777 2.4074-2.4074"/><rect x="-247.76" y="81.915" width="3.8086" height="15.836" rx="0" ry="0"/><rect x="-247.76" y="75.5" width="3.8086" height="3.3409" rx="0" ry="0"/><rect x="-241.66" y="94.53" width="11.982" height="3.2208" rx="0" ry="0"/><path d="m-241.66 81.892h11.982v3.2208h-11.982z"/><path transform="rotate(45)" d="m-105.68 222.9 3.43-0.33021 1.9968 14.453-3.7871 0.70211z"/><path d="m-265.76 75.5v22.25h3.6196v-1.6629c1.5905 0.92855 3.2041 1.6299 4.9017 1.6299 4.1608-1.61e-4 6.8721-3.5953 6.8719-8.0882-6e-5 -4.4927-3.3494-7.7267-7.51-7.7269-1.6145-5.6e-5 -3.0896 0.70302-4.2637 1.5845v-7.9867zm7.5285 9.4343c2.7779-1.85e-4 4.4396 1.6888 4.4398 4.8324 1e-5 3.1438-1.1654 4.9364-3.9435 4.9362-1.7675-8.5e-5 -3.5083-1.6485-4.4053-3.2089v-3.754c0.63772-1.7434 2.2018-2.8057 3.909-2.8058z"/></g><path d="m-338.03 86.538c2.808-1.9594 7.5359-1.7582 7.5359 1.1576v10.158h3.4727v-10.776c0-3.2747-3.4913-5.1982-6.7609-4.9558s-4.2241 0.70737-4.2241 0.70737z" class="safill"  fill="#008fff" fill-rule="evenodd"/><rect x="-341.5" y="75.84" width="3.638" height="21.923" rx="0" ry="0" class="safill"  fill="#008fff" fill-opacity=".99608"/></g></svg>